<?xml version="1.0" standalone="no"?>
<svg xmlns:xlink="http://www.w3.org/1999/xlink" id="wave" style="transform:rotate(0deg); transition: 0.3s" viewBox="0 0 1440 490" version="1.1" xmlns="http://www.w3.org/2000/svg"><defs><linearGradient id="sw-gradient-0" x1="0" x2="0" y1="1" y2="0"><stop stop-color="rgba(255, 255, 255, 1)" offset="0%"/><stop stop-color="rgba(122, 204, 45, 1)" offset="100%"/></linearGradient></defs><path style="transform:translate(0, 0px); opacity:1" fill="url(#sw-gradient-0)" d="M0,98L120,130.7C240,163,480,229,720,228.7C960,229,1200,163,1440,179.7C1680,196,1920,294,2160,302.2C2400,310,2640,229,2880,204.2C3120,180,3360,212,3600,236.8C3840,261,4080,278,4320,302.2C4560,327,4800,359,5040,359.3C5280,359,5520,327,5760,285.8C6000,245,6240,196,6480,155.2C6720,114,6960,82,7200,130.7C7440,180,7680,310,7920,375.7C8160,441,8400,441,8640,424.7C8880,408,9120,376,9360,359.3C9600,343,9840,343,10080,302.2C10320,261,10560,180,10800,130.7C11040,82,11280,65,11520,65.3C11760,65,12000,82,12240,138.8C12480,196,12720,294,12960,343C13200,392,13440,392,13680,383.8C13920,376,14160,359,14400,334.8C14640,310,14880,278,15120,228.7C15360,180,15600,114,15840,106.2C16080,98,16320,147,16560,179.7C16800,212,17040,229,17160,236.8L17280,245L17280,490L17160,490C17040,490,16800,490,16560,490C16320,490,16080,490,15840,490C15600,490,15360,490,15120,490C14880,490,14640,490,14400,490C14160,490,13920,490,13680,490C13440,490,13200,490,12960,490C12720,490,12480,490,12240,490C12000,490,11760,490,11520,490C11280,490,11040,490,10800,490C10560,490,10320,490,10080,490C9840,490,9600,490,9360,490C9120,490,8880,490,8640,490C8400,490,8160,490,7920,490C7680,490,7440,490,7200,490C6960,490,6720,490,6480,490C6240,490,6000,490,5760,490C5520,490,5280,490,5040,490C4800,490,4560,490,4320,490C4080,490,3840,490,3600,490C3360,490,3120,490,2880,490C2640,490,2400,490,2160,490C1920,490,1680,490,1440,490C1200,490,960,490,720,490C480,490,240,490,120,490L0,490Z"/></svg>